# Blender 4.0.1
# www.blender.org
mtllib LeftLink_compress.mtl
o Segment1
v -0.216725 1.223259 1.966333
v -0.210607 1.182941 2.974763
v -0.188435 1.092680 -1.992443
v -0.178964 1.082094 -2.995011
v -0.216995 0.014586 2.980877
v -0.199374 0.072228 -1.988173
v -0.191711 -0.103101 1.984134
v -0.186233 -0.110829 -2.993384
v -0.185126 -0.115958 -1.994052
v -0.205577 1.270066 -2.986939
v -0.167857 1.070341 2.985147
v -0.164372 1.065964 1.984650
v -0.198087 0.071148 1.981928
v -0.199572 0.066021 -2.995010
v -0.161991 -0.139992 2.985360
v -0.187393 1.299919 2.985805
v -0.196509 1.286665 -1.992827
v -0.132242 0.160367 2.986117
v -0.089823 1.395697 2.982026
v -0.092634 1.393189 -1.993971
v -0.059836 1.006955 2.983780
v -0.117291 1.384089 1.984100
v -0.085055 0.185109 -1.993384
v -0.056041 -0.203386 2.981019
v -0.059944 -0.202021 -2.003039
v -0.075025 0.193284 1.983917
v -0.073310 0.193739 -2.990848
v -0.061673 -0.200971 1.986521
v -0.057215 -0.202967 -2.993471
v -0.060037 1.006973 -2.984380
v -0.059827 1.006927 -2.002369
v -0.090084 1.395870 -2.994518
v -0.061964 1.008114 1.985570
v 0.136884 -0.197434 -2.990746
v 0.123085 1.005498 -2.998716
v -0.002289 0.200259 2.970224
v 0.160786 1.000905 2.982682
v 0.223563 1.395568 1.975436
v 0.143460 1.395450 2.979610
v 0.159844 1.002880 1.980963
v 0.117206 1.006057 -1.995280
v 0.138435 1.393439 -2.990876
v 0.224472 -0.191827 2.977138
v 0.140107 1.385439 -1.990458
v 0.178116 0.201652 2.982840
v 0.151236 -0.203336 1.978534
v 0.176228 0.201086 -1.989303
v 0.236045 0.976917 -1.976067
v 0.224228 -0.203235 -1.984775
v 0.246763 0.970578 -2.981287
v 0.760703 -0.203648 1.903228
v 0.187517 0.204852 -2.989743
v 0.296294 1.396041 -1.972413
v 0.357276 1.395019 2.963459
v 0.178820 0.201956 1.976670
v 0.347622 0.910252 1.952930
v 0.357007 0.902909 2.961373
v 0.371377 0.313350 -1.956198
v 0.395925 -0.201061 1.945248
v 0.347966 -0.203735 -2.971020
v 0.380393 0.322703 2.960654
v 0.305099 0.260194 1.961749
v 0.384675 1.395302 -2.966486
v 0.804793 1.396147 1.884447
v 0.411572 0.842886 -1.949100
v 0.374806 0.318511 -2.973657
v 0.968579 1.396094 -2.828212
v 0.370238 0.887925 -2.963680
v 0.411698 0.364249 1.941742
v 0.436773 0.801211 2.954158
v 0.433166 0.801946 1.938903
v 0.477703 0.502803 2.941016
v 0.644640 -0.200562 -1.883200
v 0.638350 1.393725 1.875639
v 0.637145 1.393919 -1.885006
v 0.479879 0.671717 1.925284
v 0.477974 0.676083 2.939303
v 0.478722 0.673205 -1.936761
v 0.491394 -0.202903 2.941946
v 0.491658 -0.197004 -2.953978
v 0.467704 0.735058 -2.956781
v 0.477676 0.501224 -1.935230
v 0.477184 0.499454 1.925690
v 0.476616 0.499532 -2.948588
v 0.831590 -0.203661 -1.912128
v 0.532080 1.383214 2.939136
v 0.534342 1.385232 -2.948057
v 0.838676 1.393260 1.795434
v 0.985231 1.396019 -1.835147
v 0.850345 1.394745 2.859046
v 0.903842 -0.203605 2.844395
v 0.845503 1.392857 -1.798841
v 0.873220 -0.201757 -1.785057
v 0.913736 -0.201315 -2.850716
v 1.043851 1.394645 1.684284
v 0.827535 -0.200302 1.798934
v 1.057513 -0.198308 1.672613
v 1.050411 1.394157 2.788397
v 1.492439 1.396114 -2.590226
v 1.062184 1.393776 -1.680275
v 1.398708 -0.203647 1.491246
v 1.155991 -0.203711 -1.613587
v 1.203065 1.396154 2.726889
v 1.285292 1.396454 1.547012
v 1.163172 -0.203671 2.744083
v 1.282133 1.394328 -1.517908
v 1.233495 -0.204065 1.551628
v 1.165509 -0.203497 -2.754260
v 1.232513 1.389406 1.551464
v 1.318949 -0.190355 1.468406
v 1.328277 1.388813 1.461811
v 1.164793 1.392782 -2.755078
v 2.791241 1.396098 1.047189
v 1.395430 -0.200693 -1.408864
v 1.504724 1.396075 2.573298
v 1.485922 -0.201420 -2.594332
v 1.483071 -0.203518 2.586936
v 1.446575 1.386049 1.347621
v 1.479486 1.396124 -1.454719
v 1.452141 -0.195445 1.339373
v 1.450265 1.393366 -1.350640
v 1.770139 1.396021 1.024105
v 1.571202 -0.201924 1.198032
v 1.553732 1.395411 1.226817
v 1.574214 1.393073 -1.207950
v 1.732821 -0.201379 0.957213
v 1.741402 1.392889 0.935581
v 1.585902 -0.201581 -1.188840
v 1.993271 -0.203680 0.595948
v 1.791565 1.395987 2.377064
v 1.750820 1.395655 -0.928746
v 1.753611 -0.201496 -0.922766
v 1.761766 -0.194337 2.403018
v 1.856833 1.393713 0.681295
v 1.771445 1.393985 -2.404754
v 1.868038 -0.201339 0.656570
v 1.912268 -0.202411 2.286871
v 1.925188 1.392883 2.275990
v 1.805446 -0.203583 -2.381155
v 1.918761 1.395215 -2.292092
v 2.804261 -0.203694 1.010750
v 2.654885 1.396010 -1.354881
v 1.873255 -0.201272 -0.646854
v 1.947579 1.393105 0.345153
v 2.658684 -0.203746 -1.351135
v 1.870794 1.394212 -0.656678
v 1.968994 -0.201362 0.244241
v 1.766967 -0.203598 -1.101092
v 1.948272 -0.201501 -0.347393
v 1.973238 1.395096 0.196164
v 1.969859 1.393871 -0.240838
v 1.973647 -0.201945 -0.203675
v 2.036332 -0.203713 -0.367354
v 2.022530 1.396138 -0.480509
v 2.262343 1.396086 1.940204
v 2.272194 -0.202573 1.926189
v 1.944947 -0.203581 -2.266867
v 2.968454 -0.203668 -0.296419
v 2.349437 1.395997 -1.844954
v 2.251298 1.392822 -1.960311
v 2.272705 -0.200689 -1.937652
v 2.375234 1.393837 1.799738
v 2.376103 -0.199872 1.798951
v 2.556496 1.394245 -1.537243
v 2.654408 1.395547 1.344823
v 2.559739 1.387813 1.521755
v 2.372922 -0.203685 -1.810992
v 2.563378 -0.203586 1.517057
v 2.564578 -0.200759 -1.525835
v 2.673858 -0.202078 1.312865
v 2.758168 -0.200008 -1.137085
v 2.758482 1.396098 -1.133282
v 2.862135 -0.201822 -0.832029
v 2.935441 -0.203194 0.511350
v 2.939965 1.395346 0.481894
v 2.967228 1.395822 -0.291237
v 2.935096 1.393932 -0.530618
v 2.865510 1.388296 -0.821969
v 2.935687 -0.201667 -0.521398
v 2.972697 1.394724 0.253520
v 2.969692 -0.201610 0.271866
vn -0.9810 0.1934 0.0137
vn -0.9991 -0.0416 0.0098
vn -0.9901 -0.1398 -0.0079
vn -0.9991 -0.0368 -0.0210
vn -0.9972 -0.0752 0.0007
vn -0.9971 -0.0755 0.0007
vn -0.3071 -0.0289 0.9512
vn -0.9486 -0.3165 -0.0069
vn -0.9348 -0.3551 -0.0017
vn -0.9422 -0.3348 0.0156
vn -0.8497 0.5270 -0.0152
vn 0.2319 -0.0360 -0.9721
vn -0.0969 0.0290 -0.9949
vn -0.8646 0.5022 0.0121
vn -0.0691 0.0043 0.9976
vn -0.7368 0.6761 -0.0046
vn -0.7042 0.7098 -0.0169
vn -0.7111 0.7031 -0.0042
vn -0.7003 0.7138 0.0110
vn -0.7160 0.6982 -0.0000
vn -0.7027 0.7115 -0.0021
vn 0.0709 -0.0258 0.9971
vn -0.0076 -0.0098 -0.9999
vn -0.5139 -0.8577 -0.0163
vn -0.6014 -0.7990 0.0015
vn -0.5667 -0.8239 -0.0036
vn -0.5812 -0.8138 -0.0008
vn -0.0220 -0.0549 -0.9983
vn -0.5061 -0.8625 0.0020
vn -0.5548 -0.8320 0.0001
vn -0.5343 -0.8453 0.0039
vn -0.4918 -0.8707 -0.0000
vn 0.0140 0.0017 -0.9999
vn -0.0114 -0.0000 -0.9999
vn -0.2918 0.9564 0.0148
vn 0.0277 -0.0116 -0.9995
vn 0.0207 -0.0046 0.9998
vn 0.0156 -0.0424 0.9990
vn -0.0637 -0.1949 0.9787
vn 0.0046 -0.0137 0.9999
vn -0.0216 0.0050 0.9998
vn -0.0339 0.9994 -0.0107
vn -0.0075 1.0000 0.0027
vn 0.0104 0.0289 0.9995
vn -0.0075 0.0017 1.0000
vn -0.0236 -0.9997 -0.0011
vn 0.0056 -0.0130 0.9999
vn -0.0403 -0.1743 0.9839
vn -0.0081 -1.0000 -0.0000
vn -0.0162 0.0093 0.9998
vn 0.0159 -0.0029 -0.9999
vn 0.0070 -0.0023 1.0000
vn -0.0775 -0.2589 -0.9628
vn 0.0030 0.0296 -0.9996
vn 0.0123 -0.0130 0.9998
vn -0.0143 0.0246 0.9996
vn -0.0071 0.0205 -0.9998
vn -0.0629 0.5394 0.8397
vn -0.0112 -0.9999 -0.0024
vn -0.0043 -1.0000 0.0009
vn -0.0342 -0.7041 0.7093
vn 0.0163 0.0085 0.9998
vn -0.0251 -0.0100 -0.9996
vn -0.0049 -1.0000 0.0005
vn -0.0612 0.9981 0.0079
vn -0.0148 0.0051 -0.9999
vn -0.0382 -0.0751 -0.9964
vn -0.0274 -0.9996 -0.0019
vn 0.0133 0.0008 -0.9999
vn -0.0073 1.0000 -0.0065
vn -0.0284 -0.0027 -0.9996
vn -0.0341 0.9994 0.0003
vn -0.0426 0.9991 0.0033
vn -0.1603 -0.0029 0.9871
vn -0.0003 1.0000 -0.0002
vn -0.0001 1.0000 -0.0001
vn 0.0313 -0.8054 -0.5919
vn 0.1435 0.0143 -0.9895
vn -0.2380 -0.9713 -0.0009
vn -0.2721 -0.9623 0.0032
vn -0.0025 -0.9999 0.0104
vn -0.1153 0.0079 0.9933
vn -0.1190 0.0035 -0.9929
vn -0.1432 0.0093 -0.9897
vn 0.0985 0.0027 -0.9951
vn 0.0753 0.0111 0.9971
vn -0.0007 -1.0000 -0.0001
vn -0.4469 -0.8946 -0.0013
vn 0.0910 -0.0090 -0.9958
vn -0.4427 -0.8967 -0.0024
vn 0.1099 -0.0015 0.9939
vn -0.1626 -0.0083 0.9867
vn -0.1349 0.0089 -0.9908
vn 0.0138 0.9767 -0.2140
vn 0.1059 -0.0043 0.9944
vn -0.5147 0.8573 -0.0149
vn -0.4990 0.8666 0.0027
vn -0.4188 0.9081 -0.0000
vn -0.5186 0.8550 -0.0026
vn 0.0928 -0.0098 -0.9956
vn 0.0416 -0.8182 0.5734
vn -0.0008 1.0000 0.0010
vn 0.0020 0.9999 -0.0144
vn -0.1429 0.0119 0.9897
vn -0.6068 -0.7949 -0.0015
vn -0.5548 -0.8319 -0.0143
vn -0.6977 0.7163 0.0078
vn 0.0020 -0.9999 0.0156
vn -0.0005 -1.0000 -0.0002
vn -0.0006 -1.0000 0.0008
vn 0.1350 -0.0093 -0.9908
vn 0.0847 -0.0043 0.9964
vn -0.7846 -0.6200 0.0028
vn 0.1304 -0.0077 0.9914
vn 0.0594 -0.0072 -0.9982
vn -0.7868 -0.6173 0.0023
vn 0.1183 -0.0111 -0.9929
vn -0.0079 -0.9983 0.0579
vn -0.0078 -0.9983 0.0581
vn -0.0077 -0.9983 0.0581
vn -0.8434 -0.5372 0.0105
vn -0.8716 0.4903 -0.0005
vn -0.1965 0.0017 0.9805
vn -0.2340 -0.0147 -0.9721
vn -0.8798 0.4753 -0.0011
vn -0.9004 0.4349 -0.0099
vn -0.8703 0.4924 0.0001
vn -0.0003 1.0000 0.0006
vn -0.9497 -0.3131 0.0031
vn -0.9413 -0.3376 -0.0003
vn -0.9295 -0.3687 -0.0123
vn 0.1347 0.0522 0.9895
vn -0.0111 0.9979 -0.0646
vn -0.2035 -0.0340 -0.9785
vn 0.2185 0.0123 -0.9758
vn 0.1890 0.0050 0.9820
vn -0.1995 -0.0042 -0.9799
vn 0.1380 0.0030 0.9904
vn -0.9999 0.0156 -0.0019
vn -0.9993 -0.0375 0.0085
vn -1.0000 0.0016 0.0005
vn -1.0000 0.0061 0.0010
vn -0.0766 -0.7838 -0.6163
vn -0.2484 -0.0110 0.9686
vn 0.1223 0.0008 -0.9925
vn -0.2872 -0.0028 -0.9579
vn 0.2812 -0.0213 0.9594
vn -0.2285 -0.0197 0.9733
vn -0.2349 0.0162 0.9719
vn -0.1276 0.0100 0.9918
vn 0.3248 -0.0206 -0.9455
vn -0.0820 0.0059 -0.9966
vn 0.0101 0.0015 0.9999
vn 0.0011 1.0000 0.0076
vn -0.0007 1.0000 -0.0020
vn -0.3533 0.0105 0.9355
vn -0.0002 -1.0000 -0.0005
vn 0.0033 0.9999 0.0164
vn 0.0912 -0.9072 -0.4106
vn 0.1425 0.7276 0.6711
vn 0.0065 0.9996 0.0279
vn -0.2987 -0.0003 0.9543
vn -0.0214 0.9940 0.1076
vn 0.2302 -0.0042 0.9731
vn -0.3097 0.0026 -0.9508
vn -0.4002 0.0208 -0.9162
vn -0.0126 0.9992 -0.0372
vn 0.2441 -0.0007 0.9698
vn -0.3211 0.0075 -0.9470
vn -0.0116 -0.9992 -0.0395
vn 0.0204 -0.9969 -0.0757
vn 0.1204 0.8498 -0.5131
vn -0.3822 -0.0007 0.9241
vn -0.3717 0.0006 -0.9284
vn 0.2376 -0.0028 -0.9714
vn -0.0000 1.0000 0.0001
vn -0.3945 0.0011 0.9189
vn -0.0136 -0.9997 0.0194
vn -0.0306 0.9986 -0.0440
vn 0.2659 0.0045 -0.9640
vn -0.0119 0.9991 0.0411
vn -0.0002 -1.0000 -0.0001
vn 0.0003 -1.0000 0.0005
vn -0.4763 0.0014 -0.8793
vn 0.1103 0.9461 0.3046
vn 0.3330 0.0025 0.9429
vn -0.0167 0.9996 0.0228
vn -0.4800 -0.0008 0.8773
vn -0.4814 0.0023 -0.8765
vn -0.0138 -0.9991 -0.0409
vn -0.0874 -0.9869 -0.1353
vn -0.5185 0.0052 0.8551
vn 0.3608 -0.0004 0.9327
vn 0.3577 -0.0003 -0.9338
vn 0.3493 0.0012 -0.9370
vn -0.0366 0.9980 -0.0511
vn 0.0422 -0.9932 0.1087
vn -0.0200 -0.9996 0.0215
vn 0.0918 0.9750 -0.2023
vn -0.5756 0.0011 -0.8177
vn -0.0000 -1.0000 -0.0000
vn -0.1488 0.9570 -0.2491
vn 0.3737 0.0006 0.9275
vn -0.0208 0.9995 0.0248
vn -0.5939 -0.0013 0.8045
vn -0.0002 1.0000 -0.0000
vn -0.5665 -0.0004 -0.8240
vn -0.0000 -1.0000 -0.0002
vn -0.0003 1.0000 0.0004
vn -0.0154 0.9997 0.0198
vn -0.6977 -0.0005 -0.7164
vn 0.0003 1.0000 0.0003
vn -0.1439 0.9765 -0.1602
vn -0.6834 0.0010 -0.7300
vn -0.6499 0.0058 0.7600
vn 0.4409 -0.0013 0.8975
vn -0.0030 -1.0000 -0.0070
vn 0.4495 0.0005 -0.8933
vn 0.4466 -0.0003 -0.8947
vn 0.4537 0.0015 0.8911
vn -0.7053 -0.0016 0.7089
vn -0.6958 0.0011 -0.7183
vn -0.6882 0.3112 -0.6554
vn 0.0456 -0.9959 -0.0785
vn -0.6945 0.0013 -0.7195
vn -0.0336 0.9967 -0.0740
vn -0.1209 0.9814 -0.1490
vn -0.6952 0.4189 -0.5842
vn 0.0005 -1.0000 -0.0056
vn 0.0001 -1.0000 -0.0001
vn -0.0161 0.9996 0.0220
vn -0.4545 -0.7069 0.5420
vn -0.7481 0.0008 -0.6635
vn -0.7549 0.0020 0.6558
vn -0.7647 0.0032 -0.6443
vn -0.7560 0.0023 0.6545
vn -0.0158 -0.9998 0.0097
vn -0.0273 0.9993 -0.0261
vn -0.0213 0.9996 0.0205
vn -0.0435 -0.9986 -0.0315
vn -0.0865 0.9952 0.0455
vn -0.8303 0.0010 -0.5573
vn 0.5536 -0.0001 -0.8328
vn 0.5550 -0.0005 -0.8319
vn 0.5508 -0.0003 0.8346
vn -0.0276 0.9993 -0.0264
vn -0.8451 0.0005 0.5346
vn -0.8406 -0.0028 -0.5417
vn -0.8460 0.0002 0.5332
vn -0.1104 -0.9912 -0.0733
vn 0.5646 0.0029 0.8253
vn 0.3951 -0.7263 0.5625
vn -0.0163 -0.9998 0.0106
vn 0.0102 0.9999 -0.0116
vn -0.0001 1.0000 -0.0009
vn 0.1117 0.9813 -0.1568
vn -0.9106 -0.0007 -0.4133
vn -0.9120 -0.0000 -0.4102
vn -0.0495 0.9986 -0.0192
vn -0.9150 -0.0001 0.4035
vn 0.6110 0.0015 0.7916
vn -0.0218 0.9997 0.0121
vn -0.0000 1.0000 -0.0000
vn -0.9175 0.0010 0.3978
vn 0.6075 0.0012 -0.7943
vn -0.0240 -0.9997 -0.0109
vn 0.6033 0.0006 0.7975
vn -0.2022 0.9336 -0.2959
vn -0.0216 -0.9997 0.0102
vn -0.0564 0.9982 -0.0210
vn -0.0386 0.9990 0.0223
vn 0.6337 -0.0018 -0.7735
vn -0.9654 -0.0027 -0.2606
vn -0.9700 -0.0000 0.2430
vn 0.0003 -1.0000 0.0004
vn 0.0001 1.0000 -0.0000
vn -0.9728 -0.0023 0.2317
vn -0.9713 0.0020 -0.2378
vn -0.0396 -0.9991 0.0144
vn -0.0241 0.9997 -0.0083
vn -0.0189 0.9998 0.0053
vn -0.9855 -0.0025 -0.1698
vn -0.9848 0.0017 0.1739
vn 0.0493 0.9970 0.0590
vn -1.0000 -0.0022 0.0077
vn -0.9999 0.0023 -0.0104
vn -0.0212 -0.9998 -0.0051
vn -0.0239 -0.9997 0.0052
vn -0.0001 -1.0000 0.0003
vn 0.0477 0.9986 0.0216
vn -0.0001 1.0000 -0.0000
vn 0.0003 1.0000 0.0002
vn 0.0006 1.0000 0.0001
vn -0.0989 -0.9951 0.0003
vn -0.0248 -0.9997 0.0013
vn -0.0003 -1.0000 0.0001
vn 0.1551 -0.9771 -0.1459
vn 0.0026 1.0000 0.0017
vn -0.0538 0.9985 -0.0024
vn 0.7087 0.0005 -0.7055
vn -0.0318 -0.9995 -0.0014
vn 0.7057 -0.0009 0.7085
vn 0.7063 -0.0006 -0.7079
vn 0.0089 -0.9999 0.0091
vn 0.0003 -1.0000 0.0003
vn 0.2184 0.9526 -0.2120
vn 0.0071 -0.9999 0.0075
vn 0.7078 -0.0018 0.7064
vn 0.7616 0.0010 -0.6480
vn 0.7842 -0.0017 -0.6205
vn 0.7795 0.0001 0.6264
vn 0.7745 -0.0008 0.6325
vn 0.2176 -0.9633 0.1572
vn 0.1032 0.9924 0.0671
vn 0.8332 0.0002 0.5530
vn 0.8300 0.0003 -0.5578
vn 0.4361 0.8581 0.2709
vn -0.0000 -1.0000 0.0001
vn 0.8329 0.0003 0.5534
vn 0.8297 0.0002 -0.5583
vn 0.1142 0.9909 -0.0712
vn 0.1993 -0.9721 -0.1240
vn 0.1155 -0.9918 0.0551
vn 0.8801 0.0011 -0.4748
vn 0.8817 0.0006 0.4718
vn 0.8804 0.0010 -0.4742
vn 0.0139 0.9999 0.0082
vn 0.8795 0.0012 0.4759
vn 0.9068 0.0012 -0.4215
vn 0.9059 0.0008 -0.4235
vn 0.9086 0.0027 0.4177
vn 0.9181 -0.0016 0.3963
vn -0.0009 1.0000 -0.0000
vn 0.1851 -0.9803 -0.0689
vn 0.0370 -0.9993 -0.0108
vn 0.9465 0.0006 -0.3226
vn 0.9457 0.0001 -0.3251
vn 0.1025 -0.9945 -0.0238
vn 0.3873 0.9153 -0.1102
vn 0.0721 0.9972 -0.0176
vn 0.0014 1.0000 -0.0004
vn 0.0016 1.0000 -0.0003
vn 0.0017 1.0000 -0.0002
vn 0.0085 1.0000 0.0009
vn 0.0072 -1.0000 0.0009
vn 0.9671 0.0020 0.2544
vn 0.9726 -0.0010 -0.2323
vn 0.9672 0.0021 0.2541
vn 0.9731 -0.0006 -0.2304
vn 0.0309 0.9995 0.0017
vn 0.0703 -0.9975 0.0035
vn 0.9911 -0.0004 -0.1330
vn 0.9899 -0.0002 0.1416
vn 0.9896 0.0012 -0.1441
vn 0.9899 -0.0002 0.1419
vn 0.9999 0.0008 -0.0100
vn 1.0000 -0.0019 -0.0022
s 0
usemtl None
f 2//1 16//1 1//1
f 3//2 17//2 10//2
f 4//3 3//3 10//3
f 7//4 5//4 13//4
f 6//5 14//5 8//5
f 9//6 6//6 8//6
f 2//7 11//7 16//7
f 1//8 12//8 2//8
f 11//9 2//9 12//9
f 15//10 5//10 7//10
f 16//11 22//11 1//11
f 22//12 12//12 1//12
f 4//13 10//13 32//13
f 5//14 18//14 13//14
f 5//15 15//15 18//15
f 10//16 17//16 32//16
f 18//17 26//17 13//17
f 14//18 6//18 27//18
f 16//19 19//19 22//19
f 17//20 20//20 32//20
f 6//21 23//21 27//21
f 6//22 9//22 23//22
f 29//23 8//23 14//23
f 24//24 15//24 7//24
f 24//25 7//25 28//25
f 25//26 9//26 8//26
f 25//27 8//27 29//27
f 40//28 33//28 12//28
f 12//29 21//29 11//29
f 3//30 30//30 31//30
f 4//31 30//31 3//31
f 33//32 21//32 12//32
f 34//33 29//33 14//33
f 40//34 12//34 22//34
f 36//35 26//35 18//35
f 7//36 13//36 26//36
f 15//37 43//37 18//37
f 15//38 24//38 43//38
f 25//39 49//39 9//39
f 21//40 37//40 11//40
f 9//41 49//41 23//41
f 19//42 38//42 22//42
f 53//43 32//43 20//43
f 16//44 39//44 19//44
f 3//45 44//45 17//45
f 40//46 21//46 33//46
f 41//47 44//47 3//47
f 31//48 41//48 3//48
f 35//49 31//49 30//49
f 23//50 49//50 47//50
f 42//51 4//51 32//51
f 11//52 37//52 16//52
f 35//53 30//53 4//53
f 52//54 14//54 27//54
f 18//55 43//55 45//55
f 17//56 44//56 20//56
f 42//57 35//57 4//57
f 18//58 45//58 36//58
f 46//59 24//59 28//59
f 29//60 49//60 25//60
f 44//61 53//61 20//61
f 37//62 39//62 16//62
f 38//63 40//63 22//63
f 41//64 31//64 35//64
f 47//65 27//65 23//65
f 46//66 7//66 26//66
f 46//67 28//67 7//67
f 37//68 21//68 40//68
f 52//69 34//69 14//69
f 36//70 45//70 26//70
f 46//71 26//71 55//71
f 45//72 55//72 26//72
f 47//73 52//73 27//73
f 41//74 48//74 44//74
f 19//75 115//75 38//75
f 99//76 32//76 53//76
f 60//77 29//77 34//77
f 35//78 42//78 50//78
f 48//79 41//79 35//79
f 50//80 48//80 35//80
f 60//81 108//81 29//81
f 48//82 53//82 44//82
f 62//83 46//83 55//83
f 56//84 40//84 38//84
f 63//85 50//85 42//85
f 37//86 54//86 39//86
f 85//87 49//87 29//87
f 57//88 37//88 40//88
f 66//89 34//89 52//89
f 40//90 56//90 57//90
f 45//91 43//91 61//91
f 58//92 47//92 49//92
f 59//93 46//93 62//93
f 32//94 63//94 42//94
f 37//95 57//95 54//95
f 61//96 62//96 45//96
f 66//97 47//97 58//97
f 45//98 62//98 55//98
f 52//99 47//99 66//99
f 60//100 34//100 66//100
f 79//101 43//101 24//101
f 115//102 64//102 38//102
f 67//103 63//103 32//103
f 65//104 53//104 48//104
f 65//105 48//105 50//105
f 68//106 65//106 50//106
f 69//107 62//107 61//107
f 91//108 79//108 24//108
f 51//109 24//109 46//109
f 108//110 139//110 29//110
f 68//111 50//111 63//111
f 57//112 70//112 54//112
f 71//113 57//113 56//113
f 43//114 79//114 61//114
f 81//115 68//115 63//115
f 70//116 57//116 71//116
f 80//117 60//117 66//117
f 85//118 73//119 49//120
f 68//121 81//121 65//121
f 84//122 66//122 58//122
f 49//123 82//123 58//123
f 38//124 74//124 56//124
f 61//125 72//125 83//125
f 61//126 83//126 69//126
f 58//127 82//127 84//127
f 99//128 67//128 32//128
f 77//129 70//129 71//129
f 77//130 71//130 76//130
f 78//131 65//131 81//131
f 62//132 69//132 83//132
f 38//133 64//133 74//133
f 71//134 56//134 74//134
f 66//135 84//135 80//135
f 61//136 79//136 72//136
f 83//137 59//137 62//137
f 70//138 86//138 54//138
f 77//139 76//139 83//139
f 78//140 81//140 84//140
f 72//141 77//141 83//141
f 82//142 78//142 84//142
f 59//143 51//143 46//143
f 65//144 75//144 53//144
f 87//145 81//145 63//145
f 71//146 74//146 76//146
f 77//147 86//147 70//147
f 75//148 65//148 78//148
f 82//149 49//149 73//149
f 72//150 86//150 77//150
f 87//151 84//151 81//151
f 87//152 80//152 84//152
f 79//153 86//153 72//153
f 103//154 19//154 39//154
f 103//155 115//155 19//155
f 75//156 78//156 82//156
f 29//157 139//157 85//157
f 54//158 103//158 39//158
f 94//159 60//159 80//159
f 86//160 90//160 54//160
f 90//161 103//161 54//161
f 75//162 82//162 73//162
f 75//163 89//163 53//163
f 91//164 86//164 79//164
f 74//165 83//165 76//165
f 59//166 83//166 74//166
f 64//167 88//167 74//167
f 86//168 91//168 90//168
f 96//169 59//169 74//169
f 96//170 51//170 59//170
f 94//171 108//171 60//171
f 67//172 87//172 63//172
f 73//173 92//173 75//173
f 96//174 74//174 88//174
f 80//175 87//175 94//175
f 89//176 99//176 53//176
f 92//177 73//177 93//177
f 85//178 93//178 73//178
f 64//179 95//179 88//179
f 94//180 87//180 67//180
f 92//181 89//181 75//181
f 101//182 91//182 24//182
f 101//183 24//183 51//183
f 88//184 95//184 96//184
f 90//185 98//185 103//185
f 91//186 98//186 90//186
f 100//187 89//187 92//187
f 93//188 100//188 92//188
f 97//189 96//189 95//189
f 97//190 51//190 96//190
f 101//191 51//191 97//191
f 102//192 100//192 93//192
f 91//193 105//193 98//193
f 112//194 108//194 94//194
f 94//195 67//195 112//195
f 64//196 104//196 95//196
f 107//197 101//197 97//197
f 102//198 93//198 85//198
f 112//199 67//199 99//199
f 97//200 95//200 109//200
f 129//201 91//201 101//201
f 104//202 109//202 95//202
f 103//203 98//203 105//203
f 106//204 89//204 100//204
f 102//205 106//205 100//205
f 119//206 99//206 89//206
f 109//207 107//207 97//207
f 85//208 139//208 102//208
f 115//209 104//209 64//209
f 119//210 89//210 106//210
f 109//211 110//211 107//211
f 115//212 113//212 104//212
f 104//213 111//213 109//213
f 111//214 110//214 109//214
f 102//215 114//215 106//215
f 105//216 117//216 103//216
f 117//217 105//217 91//217
f 116//218 112//218 99//218
f 116//219 108//219 112//219
f 117//220 115//220 103//220
f 106//221 114//221 121//221
f 120//222 110//222 111//222
f 123//223 107//223 110//223
f 116//224 139//224 108//224
f 118//225 120//225 111//225
f 123//226 110//226 120//226
f 104//227 118//227 111//227
f 104//228 124//228 118//228
f 123//229 101//229 107//229
f 157//230 102//230 139//230
f 121//231 119//231 106//231
f 148//232 114//232 102//232
f 118//233 124//233 120//233
f 114//234 125//234 121//234
f 124//235 123//235 120//235
f 128//236 125//236 114//236
f 148//237 128//237 114//237
f 104//238 122//238 124//238
f 125//239 119//239 121//239
f 126//240 101//240 123//240
f 131//241 119//241 125//241
f 123//242 124//242 126//242
f 141//201 91//201 129//201
f 99//243 135//243 116//243
f 116//244 135//244 139//244
f 133//245 115//245 117//245
f 122//246 127//246 124//246
f 131//247 125//247 132//247
f 124//248 127//248 126//248
f 132//249 125//249 128//249
f 129//250 101//250 126//250
f 133//251 130//251 115//251
f 137//252 133//252 117//252
f 148//253 132//253 128//253
f 159//254 140//254 99//254
f 113//255 122//255 104//255
f 140//256 135//256 99//256
f 126//257 127//257 134//257
f 126//258 134//258 136//258
f 127//259 122//259 134//259
f 146//260 131//260 132//260
f 137//261 130//261 133//261
f 131//262 154//262 119//262
f 154//263 99//263 119//263
f 132//264 143//264 146//264
f 140//265 139//265 135//265
f 129//266 126//266 136//266
f 137//267 138//267 130//267
f 130//268 138//268 115//268
f 115//263 155//263 113//263
f 148//269 143//269 132//269
f 122//270 142//270 134//270
f 146//271 154//271 131//271
f 157//272 139//272 140//272
f 136//273 134//273 144//273
f 149//274 146//274 143//274
f 141//275 117//275 91//275
f 142//276 99//276 154//276
f 149//277 151//277 146//277
f 147//278 136//278 144//278
f 148//279 153//279 143//279
f 134//280 142//280 144//280
f 151//281 154//281 146//281
f 147//282 144//282 150//282
f 149//283 152//283 151//283
f 138//284 155//284 115//284
f 152//285 150//285 151//285
f 147//286 150//286 152//286
f 129//287 136//287 147//287
f 153//288 149//288 143//288
f 102//289 145//289 148//289
f 144//290 142//290 150//290
f 145//208 102//208 157//208
f 113//291 142//291 122//291
f 142//292 159//293 99//176
f 129//294 147//294 152//294
f 153//295 152//295 149//295
f 167//296 145//296 157//296
f 157//297 161//297 167//297
f 142//298 154//298 150//298
f 150//299 154//299 151//299
f 140//300 161//300 157//300
f 153//301 129//301 152//301
f 145//182 153//182 148//182
f 155//302 138//302 137//302
f 140//303 160//303 161//303
f 168//304 137//304 117//304
f 168//305 117//305 141//305
f 159//306 160//306 140//306
f 153//201 158//201 129//201
f 156//307 137//307 168//307
f 137//308 156//308 155//308
f 129//201 158//201 141//201
f 160//309 159//309 161//309
f 159//310 167//310 161//310
f 162//311 155//311 163//311
f 156//312 163//312 155//312
f 163//313 156//313 168//313
f 162//314 165//314 155//314
f 162//315 163//315 166//315
f 159//316 169//316 167//316
f 162//317 166//317 165//317
f 145//318 158//318 153//318
f 163//319 168//319 166//319
f 164//320 169//320 159//320
f 142//321 164//321 159//321
f 169//322 145//322 167//322
f 141//323 170//323 168//323
f 169//324 164//324 142//324
f 166//325 168//325 165//325
f 145//326 169//326 142//326
f 165//327 113//327 155//327
f 168//328 170//328 165//328
f 145//329 142//329 171//329
f 172//330 171//330 142//330
f 170//331 113//331 165//331
f 113//332 170//332 141//332
f 142//333 113//333 172//333
f 173//334 145//334 171//334
f 173//335 158//335 145//335
f 172//336 173//336 171//336
f 178//337 173//337 172//337
f 173//338 179//338 158//338
f 177//339 178//339 172//339
f 176//340 177//340 172//340
f 113//341 176//342 172//343
f 175//344 176//344 113//344
f 158//345 174//345 141//345
f 113//346 174//346 175//346
f 178//347 177//347 179//347
f 141//348 174//348 113//348
f 178//349 179//349 173//349
f 180//350 176//350 175//350
f 181//351 174//351 158//351
f 176//352 179//352 177//352
f 174//353 181//353 175//353
f 158//354 179//354 176//354
f 181//355 180//355 175//355
f 180//356 158//356 176//356
f 181//357 158//357 180//357
